<svg width="36" height="36" viewBox="0 0 36 36" fill="none" xmlns="http://www.w3.org/2000/svg">
<g clip-path="url(#clip0_17_4560)">
<path d="M29.0132 11.9385L24.4996 16.452C24.7772 17.5637 24.7625 18.7283 24.4566 19.8325C24.1507 20.9368 23.5643 21.9431 22.7543 22.7535C21.9443 23.564 20.9382 24.151 19.8341 24.4575C18.73 24.7639 17.5656 24.7794 16.4537 24.5025L13.3877 27.5685C14.8856 28.0119 16.4394 28.2377 18.0016 28.239C21.32 28.1565 24.5509 27.1566 27.3358 25.3501C30.1206 23.5436 32.3506 21.001 33.7787 18.0045C32.5967 15.6938 30.9784 13.6338 29.0132 11.9385Z" fill="#A6A6A6"/>
<path d="M29.9385 4.53613L25.0831 9.39013C22.8743 8.32425 20.4541 7.76855 18.0015 7.76413C14.6827 7.84662 11.4516 8.84671 8.66653 10.6535C5.88143 12.4603 3.65124 15.0032 2.22314 18.0001C3.77364 21.0502 6.09622 23.6407 8.95959 25.5136L3.00912 31.4641H6.06461L32.9926 4.53613H29.9385ZM18.0015 14.6251C17.4272 14.6215 16.8616 14.7654 16.3588 15.0431C15.856 15.3208 15.433 15.723 15.1302 16.2111C14.8275 16.6992 14.6551 17.2569 14.6297 17.8307C14.6043 18.4045 14.7267 18.9752 14.9851 19.4881L12.5851 21.8881C11.7546 20.7624 11.3057 19.4006 11.3041 18.0016C11.3041 16.2257 12.0096 14.5226 13.2653 13.2668C14.5211 12.0111 16.2242 11.3056 18.0001 11.3056C19.3985 11.3075 20.7597 11.7563 21.885 12.5866L19.485 14.9866C19.0252 14.7529 18.5174 14.6291 18.0015 14.6251Z" fill="#A6A6A6"/>
</g>
<defs>
<clipPath id="clip0_17_4560">
<rect width="36" height="36" fill="white"/>
</clipPath>
</defs>
</svg>
