<svg width="34" height="34" viewBox="0 0 34 34" fill="none" xmlns="http://www.w3.org/2000/svg">
<g id="Icon / Live" clip-path="url(#clip0_157_17488)">
<g id="icon_menu_live">
<g id="icon">
<g id="LIVE">
<path id="&#237;&#140;&#168;&#236;&#138;&#164;_1422" d="M11.0003 23.3676H6.5166V16.1426H7.63859V22.3943H11.0018L11.0003 23.3676Z" fill="#C4C4C4" stroke="#C4C4C4" stroke-width="0.2" stroke-linejoin="round"/>
<path id="&#237;&#140;&#168;&#236;&#138;&#164;_1423" d="M12.4834 23.3676V16.1426H13.6054V23.3676H12.4834Z" fill="#C4C4C4" stroke="#C4C4C4" stroke-width="0.2" stroke-linejoin="round"/>
<path id="&#237;&#140;&#168;&#236;&#138;&#164;_1424" d="M17.6629 23.3676L15.0859 16.1426H16.3029L18.2692 22.1039H18.3004L20.2724 16.1426H21.4695L18.8912 23.3676H17.6629Z" fill="#C4C4C4" stroke="#C4C4C4" stroke-width="0.2" stroke-linejoin="round"/>
<path id="&#237;&#140;&#168;&#236;&#138;&#164;_1425" d="M27.5355 23.3676H22.9512V16.1426H27.5355V17.1087H24.0732V19.221H27.3513V20.1475H24.0732V22.3901H27.5355V23.3676Z" fill="#C4C4C4" stroke="#C4C4C4" stroke-width="0.2" stroke-linejoin="round"/>
</g>
<g id="TV" opacity="0.901">
<g id="&#236;&#130;&#172;&#234;&#176;&#129;&#237;&#152;&#149;_2321" opacity="0.998">
<path id="Vector" d="M29.7496 9.34668H4.24961C2.37184 9.34668 0.849609 10.8689 0.849609 12.7467V26.9133C0.849609 28.7911 2.37184 30.3133 4.24961 30.3133H29.7496C31.6274 30.3133 33.1496 28.7911 33.1496 26.9133V12.7467C33.1496 10.8689 31.6274 9.34668 29.7496 9.34668Z" stroke="#C4C4C4" stroke-width="1.2" stroke-linecap="round" stroke-linejoin="round"/>
</g>
<g id="antennae" opacity="0.998">
<path id="&#236;&#132;&#160;_34" d="M15.9441 9.20801L11.6162 4.95801" stroke="#C4C4C4" stroke-width="1.2" stroke-linecap="round" stroke-linejoin="round"/>
<path id="&#236;&#132;&#160;_35" d="M17.9844 9.20801L22.3123 4.95801" stroke="#C4C4C4" stroke-width="1.2" stroke-linecap="round" stroke-linejoin="round"/>
</g>
</g>
</g>
</g>
</g>
<defs>
<clipPath id="clip0_157_17488">
<rect width="34" height="34" fill="white"/>
</clipPath>
</defs>
</svg>
