<svg width="112" height="34" viewBox="0 0 112 34" fill="none" xmlns="http://www.w3.org/2000/svg">
<g id="Icon / Paramount" clip-path="url(#clip0_157_17511)">
<g id="group">
<path id="&#237;&#140;&#168;&#236;&#138;&#164; 4847" fill-rule="evenodd" clip-rule="evenodd" d="M29.6668 11.4506C29.6668 7.05892 25.0216 4.95801 19.5008 4.95801C13.6004 4.95801 8.19581 7.56042 6.20965 11.6248C5.65147 12.7104 5.36009 13.9133 5.35965 15.1339C5.34345 16.1811 5.63935 17.2093 6.20965 18.0877C6.74251 18.792 7.44562 19.3494 8.25296 19.7074C9.0603 20.0655 9.94539 20.2126 10.8251 20.1348C13.5423 20.1348 15.7325 18.643 15.7325 16.0123C15.7344 15.9082 15.7138 15.8049 15.6722 15.7096C15.6305 15.6142 15.5688 15.5289 15.4913 15.4595C15.4137 15.3901 15.322 15.3383 15.2226 15.3075C15.1232 15.2768 15.0183 15.2678 14.9151 15.2813C14.2138 15.2813 14.0396 15.7785 14.0651 16.0123C14.1279 16.4795 14.0892 16.9548 13.9515 17.4057C13.8139 17.8566 13.5805 18.2725 13.2674 18.625C12.9544 18.9775 12.5689 19.2583 12.1374 19.4482C11.7059 19.6381 11.2385 19.7326 10.7671 19.7253C8.34315 19.7253 7.32031 17.6485 7.32031 15.4272C7.32031 10.8938 10.7387 7.91176 14.2733 6.59567C15.9353 5.97407 17.6982 5.66663 19.4725 5.68901C23.5043 5.68901 26.7754 7.23884 26.7754 11.3557C26.7242 13.0582 26.0444 14.6814 24.8673 15.9125C23.6901 17.1435 22.0989 17.8952 20.4004 18.0225L20.5421 17.555C21.1386 14.9524 22.1549 12.4643 23.5511 10.1883C23.6593 10.0002 23.7865 9.82358 23.9307 9.66134L23.7267 9.42759C23.4163 9.60543 23.1228 9.81123 22.8498 10.0424C16.1915 15.2189 15.9846 29.8403 7.13331 29.8403C6.83038 29.8512 6.52713 29.8317 6.22806 29.7823C5.42157 29.7145 4.67358 29.3339 4.14409 28.7218C3.6146 28.1098 3.34563 27.3148 3.39473 26.5069C3.39473 26.1853 3.51231 25.7178 3.51231 25.4543C3.51822 25.3348 3.50002 25.2153 3.45879 25.1029C3.41757 24.9905 3.35416 24.8876 3.27235 24.8002C3.19054 24.7129 3.09199 24.6429 2.98256 24.5944C2.87314 24.5459 2.75507 24.5199 2.6354 24.5179H2.55748C1.7684 24.5179 1.44681 25.1611 1.42415 26.038C1.36606 28.6404 3.26581 30.1322 6.21531 30.4297C6.5369 30.4297 6.85848 30.4594 7.20698 30.4594C14.1302 30.4594 18.3661 25.2248 20.178 18.8796C21.0896 18.758 21.9898 18.5623 22.8696 18.2945C26.0826 17.4176 29.6696 15.2529 29.6696 11.452" fill="#C4C4C4"/>
<path id="&#237;&#140;&#168;&#236;&#138;&#164; 4848" fill-rule="evenodd" clip-rule="evenodd" d="M68.4678 17.9612C68.0803 20.261 67.1929 22.4478 65.8682 24.3673C65.3426 25.1564 64.8765 25.359 64.4671 25.359C63.8834 25.359 63.7375 24.8915 63.8239 24.2257C64.2306 22.0968 65.0758 20.0758 66.3059 18.2913C66.9491 17.4143 67.3571 17.063 67.8544 17.063C68.3219 17.063 68.4678 17.4724 68.4678 17.9697M41.5412 24.6932C41.1913 24.6932 40.9278 24.5756 40.9278 24.1081C41.2317 22.2665 42.0062 20.5347 43.176 19.0803C43.5226 18.5191 43.9916 18.0435 44.548 17.6892C45.1044 17.3349 45.7338 17.1112 46.389 17.0347L44.842 20.4843C43.6733 23.1448 42.4762 24.6932 41.5412 24.6932M26.3545 24.6932C26.0046 24.6932 25.7709 24.5756 25.7709 24.1081C26.101 22.2745 26.8726 20.5489 28.0191 19.0803C28.3656 18.5191 28.8347 18.0435 29.3911 17.6892C29.9475 17.3349 30.5769 17.1112 31.2321 17.0347L29.7134 20.4843C28.5447 23.0853 27.2895 24.6932 26.3545 24.6932ZM95.5388 12.9717H93.0852L92.5596 14.258L91.5963 16.4213H90.4629L90.113 17.1523H91.3101L89.8793 20.2803C88.8564 22.5016 87.2797 24.6719 86.3744 24.6719C86.1704 24.6719 86.0528 24.5841 86.0528 24.3801C86.086 24.0555 86.1752 23.7392 86.3164 23.4451C86.6082 22.7722 87.0757 21.8074 87.4256 21.0778C88.0394 20.0134 88.483 18.8595 88.7403 17.658C88.7506 17.4623 88.7188 17.2666 88.6468 17.0843C88.5749 16.902 88.4645 16.7373 88.3233 16.6015C88.182 16.4656 88.0132 16.3617 87.8282 16.2969C87.6433 16.2321 87.4465 16.2078 87.2514 16.2258C86.6528 16.2765 86.0712 16.4507 85.5433 16.7375C85.0154 17.0242 84.5527 17.4172 84.1843 17.8918L84.7977 16.4298H82.4857L80.6171 20.6684C79.8861 22.1715 78.3674 24.6507 77.4041 24.6507C77.2001 24.6507 77.1123 24.5331 77.1123 24.3291C77.1321 24.1476 77.1799 23.9704 77.2539 23.8035C77.3418 23.6278 78.451 20.9971 78.451 20.9971L80.4655 16.349H78.0119L76.0285 20.8823C75.4449 22.2848 73.9035 24.6535 72.9034 24.6535C72.8608 24.6599 72.8173 24.6573 72.7759 24.6457C72.7344 24.6341 72.6959 24.6138 72.6628 24.5863C72.6297 24.5587 72.6029 24.5244 72.584 24.4857C72.5652 24.447 72.5548 24.4047 72.5534 24.3617V24.3036C72.6015 23.9468 72.7103 23.6009 72.875 23.2808L73.8978 21.0013L76.0228 16.3533H73.5692L73.1017 17.4058C72.9495 17.819 72.6864 18.1823 72.3413 18.4557C71.9961 18.7291 71.5823 18.9021 71.1453 18.9557C70.6778 18.9557 70.444 18.78 70.3576 18.6043C70.356 18.2726 70.2861 17.9447 70.1523 17.6412C70.0184 17.3376 69.8235 17.0649 69.5796 16.84C69.3357 16.6151 69.0481 16.4429 68.7347 16.334C68.4213 16.2252 68.0888 16.182 67.758 16.2073C66.8557 16.2319 65.9752 16.49 65.2023 16.9562C64.4294 17.4225 63.7905 18.0811 63.3479 18.8678C62.7031 19.8608 62.2108 20.9448 61.8873 22.0837C61.0118 23.5159 60.1052 24.6337 59.3756 24.6337C59.3319 24.6401 59.2873 24.6362 59.2453 24.6224C59.2034 24.6085 59.1652 24.585 59.134 24.5537C59.1027 24.5225 59.0792 24.4843 59.0653 24.4424C59.0515 24.4004 59.0476 24.3558 59.054 24.3121C59.1126 23.9677 59.221 23.6337 59.3756 23.3204L60.9821 19.9006C61.3817 19.145 61.639 18.3224 61.7414 17.4738C61.7449 17.3004 61.7118 17.1282 61.6443 16.9684C61.5769 16.8087 61.4766 16.6648 61.3499 16.5463C61.2233 16.4278 61.0731 16.3373 60.9092 16.2806C60.7453 16.2239 60.5712 16.2023 60.3984 16.2173C59.7401 16.2641 59.0979 16.4436 58.5107 16.745C57.9235 17.0464 57.4033 17.4635 56.9814 17.9711C57.0294 17.8003 57.0491 17.6227 57.0395 17.4455C57.0626 17.2764 57.0459 17.1042 56.9905 16.9428C56.9352 16.7813 56.8428 16.6351 56.7208 16.5157C56.5989 16.3963 56.4506 16.3072 56.288 16.2554C56.1254 16.2035 55.9529 16.1905 55.7844 16.2173C55.1685 16.2698 54.571 16.4535 54.032 16.756C53.493 17.0585 53.0249 17.4728 52.6592 17.9711L53.3009 16.3929H51.081L49.1827 20.6599C48.2774 22.6433 46.8466 24.6351 46.0292 24.6351C45.8535 24.6351 45.7374 24.5473 45.7374 24.3135C45.8613 23.7173 46.0573 23.1383 46.321 22.5894L48.8328 16.9228C49.0084 16.4836 47.8099 16.2144 46.2913 16.2144C44.6794 16.2942 43.1435 16.9237 41.9393 17.998C41.4559 18.4879 40.8512 18.8409 40.1869 19.0208C40.0452 19.0208 39.9829 18.933 39.9829 18.8452C39.9829 18.4938 40.8003 17.5305 40.8003 16.7698C40.8003 16.4184 40.6246 16.2144 40.1571 16.2144C39.0646 16.4204 38.0926 17.0374 37.4414 17.9385L38.0845 16.3887H35.8943L34.0357 20.6514C33.1304 22.6348 31.6415 24.7442 30.8524 24.7442C30.6484 24.7442 30.5309 24.6266 30.5309 24.3928C30.6584 23.7615 30.875 23.1514 31.174 22.5809L33.656 16.9143C33.8317 16.4751 32.6332 16.2059 31.1159 16.2059C30.0145 16.2757 28.9425 16.5899 27.9777 17.1258C27.0129 17.6617 26.1797 18.4059 25.5385 19.3042C24.3335 20.6964 23.5709 22.4163 23.3484 24.2441C23.3156 24.4936 23.3391 24.7473 23.4171 24.9866C23.4952 25.2259 23.6258 25.4446 23.7994 25.6268C23.9731 25.809 24.1853 25.95 24.4205 26.0395C24.6558 26.1289 24.908 26.1646 25.1589 26.1438C25.7827 26.0742 26.3836 25.8679 26.9186 25.5395C27.4537 25.2111 27.9097 24.7688 28.2543 24.2441C28.2109 24.407 28.1815 24.5734 28.1664 24.7413C28.1664 25.5602 28.488 26.1438 29.4811 26.1438C30.0783 26.0503 30.6493 25.8334 31.1579 25.5067C31.6665 25.1801 32.1014 24.7511 32.4349 24.2469L31.7053 25.971H34.0711L36.4015 20.684C37.1609 18.9599 38.0364 18.083 38.2701 18.083C38.3579 18.083 38.4118 18.1128 38.4118 18.1708C38.4118 18.3465 38.0321 18.8438 38.0321 19.2815C38.0321 19.7193 38.2659 20.0706 38.9374 20.0706C39.5027 20.0277 40.0467 19.8361 40.5141 19.5153C39.3834 20.8565 38.6816 22.5064 38.4996 24.2512C38.4618 24.5016 38.4817 24.7574 38.558 24.9989C38.6342 25.2404 38.7647 25.4613 38.9394 25.6447C39.1141 25.828 39.3285 25.9689 39.5661 26.0567C39.8036 26.1444 40.0581 26.1767 40.3101 26.1509C40.9437 26.0431 41.5482 25.8057 42.0859 25.4538C42.6236 25.1018 43.0829 24.6427 43.4353 24.1053C43.4015 24.2986 43.3821 24.4941 43.3772 24.6903C43.3601 24.879 43.3832 25.0692 43.4449 25.2483C43.5066 25.4274 43.6056 25.5915 43.7353 25.7296C43.865 25.8677 44.0224 25.9768 44.1973 26.0497C44.3722 26.1225 44.5605 26.1575 44.7499 26.1523C45.7728 26.1523 46.5604 25.5092 47.5833 24.2823L46.8239 25.9823H49.2776L51.4975 20.9248C52.4608 18.7333 53.8053 17.5631 54.447 17.5631C54.5887 17.5333 54.7389 17.6807 54.7686 17.8266V17.8847C54.7318 18.136 54.6632 18.3816 54.5646 18.6157L51.3516 26.0107H53.8634L56.1116 20.8668C57.1033 18.6454 58.1856 17.5631 58.9733 17.5631C59.2353 17.5631 59.3232 17.6807 59.3232 17.9428C59.3039 18.2256 59.2349 18.5028 59.1192 18.7616L56.929 23.4366C56.7182 23.8771 56.5896 24.3524 56.5494 24.8391C56.5494 25.5701 56.929 26.1835 58.0383 26.1835C59.4394 26.1835 60.5203 25.1026 61.7471 23.523V23.8446C61.7463 24.1852 61.8178 24.5222 61.9569 24.8331C62.096 25.1441 62.2994 25.422 62.5538 25.6485C62.8082 25.8751 63.1077 26.0451 63.4326 26.1473C63.7576 26.2495 64.1005 26.2817 64.4388 26.2416C66.687 26.2416 68.4692 24.7215 69.5784 22.2664C69.9825 21.3968 70.2487 20.4696 70.3675 19.5181C70.6118 19.6376 70.8846 19.6866 71.1552 19.6598C71.5239 19.677 71.8894 19.5854 72.2064 19.3963L71.8267 20.2463C71.3889 21.1813 70.8917 22.2041 70.512 23.0796C70.2644 23.5931 70.1159 24.1487 70.0743 24.7173C70.0544 24.9191 70.079 25.1229 70.1464 25.3142C70.2137 25.5055 70.3222 25.6797 70.4641 25.8246C70.606 25.9695 70.778 26.0816 70.9679 26.1529C71.1578 26.2242 71.361 26.253 71.5632 26.2373C72.2425 26.1095 72.8884 25.8439 73.461 25.4567C74.0336 25.0695 74.5207 24.5691 74.8924 23.9863C74.8327 24.2551 74.8033 24.5297 74.8045 24.8051C74.8045 25.5361 75.0383 26.2373 76.0314 26.2373C76.6389 26.1553 77.2208 25.9397 77.7352 25.6061C78.2496 25.2725 78.6837 24.8291 79.0063 24.3078L78.2768 26.0078H80.7304L82.6869 21.5354C83.7961 19.0208 84.9068 17.5008 85.9579 17.5008C86.0416 17.499 86.1232 17.5276 86.1875 17.5812C86.2518 17.6349 86.2945 17.7099 86.3079 17.7926V17.8804C86.0268 18.8295 85.6345 19.742 85.1391 20.599C84.7389 21.4264 84.3609 22.2644 84.0058 23.1122C83.7451 23.6308 83.596 24.1984 83.568 24.7782C83.5503 24.9629 83.5736 25.1493 83.6363 25.324C83.699 25.4987 83.7995 25.6574 83.9307 25.7887C84.0618 25.92 84.2204 26.0206 84.395 26.0835C84.5696 26.1464 84.756 26.1699 84.9408 26.1523C85.6817 26.0272 86.3876 25.7461 87.0118 25.3278C87.6361 24.9095 88.1644 24.3633 88.5618 23.7256C88.3898 24.2243 88.3012 24.7479 88.2997 25.2754C88.2665 25.5559 88.2958 25.8403 88.3855 26.1081C88.4751 26.3759 88.623 26.6206 88.8184 26.8245C89.0138 27.0285 89.2519 27.1866 89.5157 27.2877C89.7794 27.3887 90.0623 27.4301 90.3439 27.4089C91.1415 27.3996 91.9168 27.1443 92.5639 26.6779C93.4655 25.9722 94.2451 25.1231 94.8716 24.1648L94.4338 23.7553C93.909 24.5473 93.2692 25.2568 92.5355 25.8605C92.185 26.1628 91.7428 26.3379 91.2804 26.3578C90.7548 26.3578 90.4304 26.0943 90.4304 25.4511C90.5385 24.5069 90.8053 23.5878 91.2194 22.7325C91.2194 22.7325 91.8909 21.2124 92.5341 19.7802C93.0597 18.5519 93.5853 17.3832 93.6674 17.1494H95.2739L95.5955 16.4184H94.0188L95.5388 12.9717Z" fill="#C4C4C4"/>
<path id="&#237;&#140;&#168;&#236;&#138;&#164; 4849" fill-rule="evenodd" clip-rule="evenodd" d="M106.308 16.4334L108.536 11.2441H105.895L103.64 16.4334H98.0527L97.1035 18.5981H102.712L100.487 23.7278H103.127L105.383 18.5981H110.991L111.911 16.4334H106.308Z" fill="#C4C4C4"/>
</g>
</g>
<defs>
<clipPath id="clip0_157_17511">
<rect width="111.917" height="34" fill="white"/>
</clipPath>
</defs>
</svg>
