<svg width="40" height="40" viewBox="0 0 40 40" fill="none" xmlns="http://www.w3.org/2000/svg">
<g id="Icon / Profile" clip-path="url(#clip0_157_17525)">
<path id="Vector" d="M37.4194 0H2.58065C1.15539 0 0 1.15539 0 2.58065V37.4194C0 38.8446 1.15539 40 2.58065 40H37.4194C38.8446 40 40 38.8446 40 37.4194V2.58065C40 1.15539 38.8446 0 37.4194 0Z" fill="black"/>
<path id="Vector_2" d="M3.22656 14.1937V6.4518C3.22656 6.09549 3.51541 5.80664 3.87172 5.80664H20.6459C21.0022 5.80664 21.2911 6.09549 21.2911 6.4518V11.2905L24.0126 6.14994C24.1244 5.93874 24.3438 5.80664 24.5828 5.80664H37.155C37.5997 5.80664 37.9111 6.24594 37.7637 6.66548L27.5716 35.6977C27.4808 35.9563 27.2368 36.1292 26.9628 36.1292H9.67818C9.32185 36.1292 9.03301 35.8404 9.03301 35.4841V15.4841C9.03301 15.1277 8.74418 14.8389 8.38785 14.8389H3.87172C3.51541 14.8389 3.22656 14.5501 3.22656 14.1937Z" fill="#FF002F"/>
<path id="Vector_3" fill-rule="evenodd" clip-rule="evenodd" d="M20.9676 21.8954C20.5274 22.6888 19.6812 23.2257 18.7096 23.2257C17.2843 23.2257 16.1289 22.0703 16.1289 20.6451C16.1289 19.2199 17.2843 18.0645 18.7096 18.0645C19.6812 18.0645 20.5274 18.6014 20.9676 19.3948C21.4079 18.6014 22.2541 18.0645 23.2257 18.0645C24.6509 18.0645 25.8063 19.2199 25.8063 20.6451C25.8063 22.0703 24.6509 23.2257 23.2257 23.2257C22.2541 23.2257 21.4079 22.6888 20.9676 21.8954Z" fill="white"/>
<path id="Vector_4" fill-rule="evenodd" clip-rule="evenodd" d="M18.7102 21.9351C19.4229 21.9351 20.0006 21.3575 20.0006 20.6448C20.0006 19.9322 19.4229 19.3545 18.7102 19.3545C17.9976 19.3545 17.4199 19.9322 17.4199 20.6448C17.4199 21.3575 17.9976 21.9351 18.7102 21.9351ZM23.2264 21.9351C23.939 21.9351 24.5167 21.3575 24.5167 20.6448C24.5167 19.9322 23.939 19.3545 23.2264 19.3545C22.5137 19.3545 21.9361 19.9322 21.9361 20.6448C21.9361 21.3575 22.5137 21.9351 23.2264 21.9351Z" fill="#030303"/>
<path id="Vector_5" fill-rule="evenodd" clip-rule="evenodd" d="M19.3548 26.672C20.0674 26.672 20.6451 26.0944 20.6451 25.3817C20.6451 25.3065 20.6386 25.2328 20.6263 25.1611L18.3154 25.3055C18.2232 25.3113 18.139 25.335 18.0645 25.3724C18.0645 25.3755 18.0645 25.3786 18.0645 25.3817C18.0645 26.0944 18.6421 26.672 19.3548 26.672Z" fill="white"/>
<path id="Vector_6" d="M17.0703 25.4599L24.8141 24.8643" stroke="black" stroke-linecap="round"/>
<path id="Vector_7" fill-rule="evenodd" clip-rule="evenodd" d="M27.7428 23.5482C27.7428 23.7263 27.5984 23.8707 27.4202 23.8707C27.2421 23.8707 27.0977 23.7263 27.0977 23.5482C27.0977 23.37 27.2421 23.2256 27.4202 23.2256C27.5984 23.2256 27.7428 23.37 27.7428 23.5482ZM29.6783 23.5482C29.6783 23.7263 29.5338 23.8707 29.3557 23.8707C29.1776 23.8707 29.0331 23.7263 29.0331 23.5482C29.0331 23.37 29.1776 23.2256 29.3557 23.2256C29.5338 23.2256 29.6783 23.37 29.6783 23.5482ZM28.0654 25.1611C28.2435 25.1611 28.388 25.0166 28.388 24.8385C28.388 24.6604 28.2435 24.5159 28.0654 24.5159C27.8873 24.5159 27.7428 24.6604 27.7428 24.8385C27.7428 25.0166 27.8873 25.1611 28.0654 25.1611Z" fill="#FF305B"/>
<path id="Vector_8" fill-rule="evenodd" clip-rule="evenodd" d="M11.6133 23.5482C11.6133 23.7263 11.7577 23.8707 11.9359 23.8707C12.114 23.8707 12.2584 23.7263 12.2584 23.5482C12.2584 23.37 12.114 23.2256 11.9359 23.2256C11.7577 23.2256 11.6133 23.37 11.6133 23.5482ZM13.5488 23.5482C13.5488 23.7263 13.6932 23.8707 13.8713 23.8707C14.0495 23.8707 14.1939 23.7263 14.1939 23.5482C14.1939 23.37 14.0495 23.2256 13.8713 23.2256C13.6932 23.2256 13.5488 23.37 13.5488 23.5482ZM13.2262 25.1611C13.0481 25.1611 12.9036 25.0166 12.9036 24.8385C12.9036 24.6604 13.0481 24.5159 13.2262 24.5159C13.4043 24.5159 13.5488 24.6604 13.5488 24.8385C13.5488 25.0166 13.4043 25.1611 13.2262 25.1611Z" fill="#FF305B"/>
</g>
<defs>
<clipPath id="clip0_157_17525">
<rect width="40" height="40" fill="white"/>
</clipPath>
</defs>
</svg>
