<svg width="36" height="36" viewBox="0 0 36 36" fill="none" xmlns="http://www.w3.org/2000/svg">
<g clip-path="url(#clip0_15_429)">
<path d="M29.0122 11.9385L24.4987 16.452C24.7762 17.5637 24.7615 18.7283 24.4556 19.8325C24.1498 20.9368 23.5633 21.9431 22.7533 22.7535C21.9433 23.564 20.9372 24.151 19.8331 24.4575C18.7291 24.7639 17.5646 24.7794 16.4527 24.5025L13.3867 27.5685C14.8847 28.0119 16.4384 28.2377 18.0006 28.239C21.319 28.1565 24.5499 27.1566 27.3348 25.3501C30.1196 23.5436 32.3497 21.001 33.7777 18.0045C32.5958 15.6938 30.9775 13.6338 29.0122 11.9385Z" fill="#A6A6A6"/>
<path d="M29.938 4.53613L25.0826 9.39013C22.8738 8.32425 20.4536 7.76855 18.001 7.76413C14.6822 7.84662 11.4512 8.84671 8.66605 10.6535C5.88094 12.4603 3.65075 15.0032 2.22266 18.0001C3.77315 21.0502 6.09573 23.6407 8.95911 25.5136L3.00864 31.4641H6.06412L32.9921 4.53613H29.938ZM18.001 14.6251C17.4267 14.6215 16.8611 14.7654 16.3583 15.0431C15.8555 15.3208 15.4325 15.723 15.1298 16.2111C14.827 16.6992 14.6547 17.2569 14.6292 17.8307C14.6038 18.4045 14.7262 18.9752 14.9846 19.4881L12.5846 21.8881C11.7541 20.7624 11.3052 19.4006 11.3036 18.0016C11.3036 16.2257 12.0091 14.5226 13.2648 13.2668C14.5206 12.0111 16.2237 11.3056 17.9996 11.3056C19.398 11.3075 20.7592 11.7563 21.8845 12.5866L19.4846 14.9866C19.0247 14.7529 18.5169 14.6291 18.001 14.6251Z" fill="#A6A6A6"/>
</g>
<defs>
<clipPath id="clip0_15_429">
<rect width="36" height="36" fill="white"/>
</clipPath>
</defs>
</svg>
