<svg width="48" height="60" viewBox="0 0 48 60" fill="none" xmlns="http://www.w3.org/2000/svg">
<g clip-path="url(#clip0_1_7375)">
<g filter="url(#filter0_b_1_7375)">
<path d="M17.2706 58.0339C26.7898 58.1585 36.4932 51.7118 38.382 40.3883C40.2478 29.2028 33.8092 24.0672 25.1299 23.9536C22.7501 23.9224 20.8497 24.3819 18.6701 25.2529L21.4582 14.4255L40.2866 14.672L41.7032 6.17934L13.9856 5.8165L8.38107 30.5848L12.6339 33.6851C15.9661 31.7912 17.7727 31.0537 20.8524 31.094C26.032 31.1618 28.9788 34.5219 27.9884 40.4598C26.9748 46.5359 22.7008 49.8706 17.2413 49.7991C12.4817 49.7368 9.1636 47.3407 6.76605 44.4722L0.865367 50.8303C4.15159 54.6791 9.08133 57.9267 17.2706 58.0339Z" fill="white"/>
</g>
</g>
<defs>
<filter id="filter0_b_1_7375" x="-4.29883" y="1.74316" width="52.3828" height="60.5283" filterUnits="userSpaceOnUse" color-interpolation-filters="sRGB">
<feFlood flood-opacity="0" result="BackgroundImageFix"/>
<feGaussianBlur in="BackgroundImageFix" stdDeviation="2"/>
<feComposite in2="SourceAlpha" operator="in" result="effect1_backgroundBlur_1_7375"/>
<feBlend mode="normal" in="SourceGraphic" in2="effect1_backgroundBlur_1_7375" result="shape"/>
</filter>
<clipPath id="clip0_1_7375">
<rect width="48" height="60" fill="white"/>
</clipPath>
</defs>
</svg>
