<svg width="48" height="60" viewBox="0 0 48 60" fill="none" xmlns="http://www.w3.org/2000/svg">
<g clip-path="url(#clip0_1_7343)">
<g filter="url(#filter0_d_1_7343)">
<path d="M1.05327 56.8528L2.02071 51.053C18.2441 38.7407 28.1043 29.2514 29.4173 21.3802C30.2695 16.2708 28.0695 13.0589 23.1 12.9939C19.2503 12.9435 15.8375 15.3207 12.694 18.1858L7.94583 12.5879C13.5462 7.60986 18.6849 4.97846 25.7543 5.071C35.4835 5.19836 41.0379 11.4296 39.4485 20.9579C37.8937 30.2792 28.3959 40.1192 17.4265 49.1095C20.0623 48.8673 23.5496 48.5669 25.9994 48.599L37.1984 48.7456L35.7703 57.3073L1.05327 56.8528Z" fill="white"/>
</g>
</g>
<defs>
<filter id="filter0_d_1_7343" x="-3.4375" y="4.85449" width="51.8809" height="60.4531" filterUnits="userSpaceOnUse" color-interpolation-filters="sRGB">
<feFlood flood-opacity="0" result="BackgroundImageFix"/>
<feColorMatrix in="SourceAlpha" type="matrix" values="0 0 0 0 0 0 0 0 0 0 0 0 0 0 0 0 0 0 127 0" result="hardAlpha"/>
<feOffset dy="4"/>
<feGaussianBlur stdDeviation="2"/>
<feComposite in2="hardAlpha" operator="out"/>
<feColorMatrix type="matrix" values="0 0 0 0 0 0 0 0 0 0 0 0 0 0 0 0 0 0 0.25 0"/>
<feBlend mode="normal" in2="BackgroundImageFix" result="effect1_dropShadow_1_7343"/>
<feBlend mode="normal" in="SourceGraphic" in2="effect1_dropShadow_1_7343" result="shape"/>
</filter>
<clipPath id="clip0_1_7343">
<rect width="48" height="60" fill="white"/>
</clipPath>
</defs>
</svg>
